<svg width="48" height="48" viewBox="0 0 48 48" fill="none" xmlns="http://www.w3.org/2000/svg">
<g id="Black" filter="url(#filter0_d_218_123)">
<path id="Vector" d="M21.4988 0.103661C18.0283 0.5336 14.8393 1.82342 11.9629 3.95747C10.7904 4.83298 8.83635 6.78725 7.96092 7.95981C5.80362 10.8678 4.52956 14.0493 4.09966 17.5748C3.96678 18.7317 3.96678 21.2645 4.09966 22.4214C4.52956 25.9469 5.80362 29.1284 7.96092 32.0364C8.83635 33.2089 10.7904 35.1632 11.9629 36.0387C14.8705 38.1962 18.0518 39.4704 21.5769 39.9003C22.7338 40.0332 25.2662 40.0332 26.4231 39.9003C29.9482 39.4704 33.1295 38.1962 36.0371 36.0387C37.2096 35.1632 39.1637 33.2089 40.0391 32.0364C42.1964 29.1284 43.4704 25.9469 43.9003 22.4214C44.0332 21.2645 44.0332 18.7317 43.9003 17.5748C43.4704 14.0493 42.1964 10.8678 40.0391 7.95981C39.1637 6.78725 37.2096 4.83298 36.0371 3.95747C33.1295 1.79996 29.9482 0.525784 26.4231 0.0958443C25.3053 -0.0370445 22.6087 -0.0292282 21.4988 0.103661ZM26.4778 2.55822C32.2618 3.41028 37.2174 7.01395 39.789 12.2201C41.0161 14.7138 41.5867 17.1683 41.5867 19.9981C41.5789 23.547 40.6722 26.6191 38.7259 29.6131C38.2648 30.3322 37.5066 31.325 37.405 31.3563C37.3737 31.3641 37.233 31.0045 37.0845 30.5511C35.959 27.096 33.3639 24.102 30.0889 22.4995C29.6746 22.2963 29.2135 22.0931 29.0728 22.0383L28.807 21.9445L29.0415 21.7804C29.5261 21.4364 30.7142 20.1701 31.0738 19.6072C32.0664 18.0595 32.5042 16.4022 32.4182 14.5574C32.254 10.8599 29.7372 7.76439 26.087 6.77162C25.532 6.61528 25.2584 6.59964 24 6.59964C22.3742 6.59964 21.8427 6.69345 20.6234 7.22501C15.8554 9.30435 14.0967 15.1906 16.9184 19.5916C17.2702 20.1466 18.3801 21.3426 18.9194 21.7413L19.193 21.9445L18.7631 22.1165C15.1128 23.6018 12.2052 26.7129 10.9468 30.4495C10.7826 30.9342 10.6263 31.3406 10.595 31.3406C10.4231 31.3406 9.08647 29.4255 8.46898 28.2842C6.44455 24.5476 5.86615 19.8652 6.91353 15.7222C8.65657 8.82751 14.3937 3.63697 21.4519 2.56604C22.8041 2.36279 25.1099 2.36279 26.4778 2.55822ZM25.446 9.13237C28.1426 9.82027 30.0186 12.2279 30.0186 14.9952C30.0186 16.6133 29.4402 17.9813 28.2599 19.1851C25.8681 21.6162 22.1319 21.6162 19.7401 19.1851C18.5598 17.9813 17.9814 16.6133 17.9814 14.9952C17.9814 12.2436 19.8495 9.83591 22.5227 9.13237C23.3278 8.92131 24.6253 8.92131 25.446 9.13237ZM26.0713 23.7034C30.0342 24.4225 33.4577 27.4087 34.7396 31.2625C35.0054 32.052 35.2633 33.1386 35.2555 33.42C35.2477 33.5763 34.3332 34.2799 33.3405 34.9052C30.4406 36.7188 27.4157 37.5865 24 37.5865C20.084 37.5865 16.6292 36.4296 13.3854 34.0375L12.7445 33.5607L12.7836 33.1698C12.893 32.2318 13.3151 30.9029 13.8466 29.8398C14.9096 27.7057 16.9184 25.7045 19.021 24.6883C20.7953 23.8363 22.3273 23.5001 24.2345 23.5549C24.8598 23.5705 25.6883 23.633 26.0713 23.7034Z" fill="black"/>
</g>
<defs>
<filter id="filter0_d_218_123" x="0" y="0" width="48" height="48" filterUnits="userSpaceOnUse" color-interpolation-filters="sRGB">
<feFlood flood-opacity="0" result="BackgroundImageFix"/>
<feColorMatrix in="SourceAlpha" type="matrix" values="0 0 0 0 0 0 0 0 0 0 0 0 0 0 0 0 0 0 127 0" result="hardAlpha"/>
<feOffset dy="4"/>
<feGaussianBlur stdDeviation="2"/>
<feComposite in2="hardAlpha" operator="out"/>
<feColorMatrix type="matrix" values="0 0 0 0 0 0 0 0 0 0 0 0 0 0 0 0 0 0 0.15 0"/>
<feBlend mode="normal" in2="BackgroundImageFix" result="effect1_dropShadow_218_123"/>
<feBlend mode="normal" in="SourceGraphic" in2="effect1_dropShadow_218_123" result="shape"/>
</filter>
</defs>
</svg>
