<svg width="48" height="48" viewBox="0 0 48 48" fill="none" xmlns="http://www.w3.org/2000/svg">
<g id="Black" filter="url(#filter0_d_218_113)">
<path id="Vector" d="M11.1047 0.0914383C7.5767 0.733093 4.71359 3.62836 4.10342 7.15746C4.00173 7.75999 3.98608 9.44238 4.00955 20.327C4.03302 34.3182 3.97826 33.0662 4.6119 34.6156C5.50368 36.7988 7.22468 38.5203 9.41504 39.4123C10.9639 40.0462 9.82182 39.9992 24.0122 39.9992C38.2026 39.9992 37.0605 40.0462 38.6094 39.4123C40.7997 38.5203 42.5207 36.7988 43.4125 34.6078C44.0462 33.0584 43.9992 34.2009 43.9992 20.0062C43.9992 5.81156 44.0462 6.95401 43.4125 5.40465C42.5207 3.21364 40.7997 1.49213 38.6172 0.600067C37.0605 -0.0337601 38.3278 0.0210152 24.2469 0.00536346C13.9287 -0.0102844 11.5897 0.00536346 11.1047 0.0914383ZM36.6459 2.66588C38.5077 3.14321 40.08 4.42652 40.878 6.11673C41.5429 7.52524 41.496 6.53146 41.496 20.0062C41.496 33.4809 41.5429 32.4872 40.878 33.8957C40.2521 35.2181 39.2195 36.251 37.8975 36.877C36.4894 37.5422 37.4829 37.4952 24.0122 37.4952C10.5415 37.4952 11.535 37.5422 10.1269 36.877C8.39809 36.0632 7.10734 34.4513 6.66927 32.5654C6.53628 31.9707 6.52846 31.3212 6.52846 20.0062C6.52846 6.53146 6.48152 7.52524 7.14645 6.11673C7.77227 4.7943 8.81269 3.75357 10.1269 3.14321C10.9248 2.76761 11.3629 2.64241 12.1999 2.55633C12.5207 2.52503 18.0278 2.50156 24.4425 2.50938C35.3786 2.52503 36.1296 2.53286 36.6459 2.66588Z" fill="#151515"/>
<path id="Vector_2" d="M13.3107 8.89468C12.7866 9.21551 12.7475 9.36418 12.7475 11.2422C12.7475 12.7837 12.7631 12.9481 12.904 13.1828C13.2247 13.7071 13.3733 13.7462 15.2508 13.7462C17.1282 13.7462 17.2768 13.7071 17.5976 13.1828C17.7384 12.9481 17.754 12.7837 17.754 11.2422C17.754 9.70066 17.7384 9.53634 17.5976 9.30158C17.2768 8.77731 17.1282 8.73818 15.2508 8.73818C13.7097 8.73818 13.5454 8.75383 13.3107 8.89468Z" fill="#151515"/>
<path id="Vector_3" d="M20.2573 11.2421V12.4941H27.7671H35.2769V11.2421V9.99012H27.7671H20.2573V11.2421Z" fill="#151515"/>
<path id="Vector_4" d="M13.3107 17.6587C12.7866 17.9795 12.7475 18.1282 12.7475 20.0062C12.7475 21.5477 12.7631 21.712 12.904 21.9468C13.2247 22.4711 13.3733 22.5102 15.2508 22.5102C17.1282 22.5102 17.2768 22.4711 17.5976 21.9468C17.7384 21.712 17.754 21.5477 17.754 20.0062C17.754 18.4646 17.7384 18.3003 17.5976 18.0656C17.2768 17.5413 17.1282 17.5022 15.2508 17.5022C13.7097 17.5022 13.5454 17.5178 13.3107 17.6587Z" fill="#151515"/>
<path id="Vector_5" d="M20.2573 20.0062V21.2582H27.7671H35.2769V20.0062V18.7542H27.7671H20.2573V20.0062Z" fill="#151515"/>
<path id="Vector_6" d="M13.3107 26.4228C12.7866 26.7436 12.7475 26.8923 12.7475 28.7703C12.7475 30.3118 12.7631 30.4761 12.904 30.7109C13.2247 31.2352 13.3733 31.2743 15.2508 31.2743C17.1282 31.2743 17.2768 31.2352 17.5976 30.7109C17.7384 30.4761 17.754 30.3118 17.754 28.7703C17.754 27.2287 17.7384 27.0644 17.5976 26.8297C17.2768 26.3054 17.1282 26.2663 15.2508 26.2663C13.7097 26.2663 13.5454 26.2819 13.3107 26.4228Z" fill="#151515"/>
<path id="Vector_7" d="M20.2573 28.7703V30.0223H27.7671H35.2769V28.7703V27.5183H27.7671H20.2573V28.7703Z" fill="#151515"/>
</g>
<defs>
<filter id="filter0_d_218_113" x="0" y="0" width="48" height="48" filterUnits="userSpaceOnUse" color-interpolation-filters="sRGB">
<feFlood flood-opacity="0" result="BackgroundImageFix"/>
<feColorMatrix in="SourceAlpha" type="matrix" values="0 0 0 0 0 0 0 0 0 0 0 0 0 0 0 0 0 0 127 0" result="hardAlpha"/>
<feOffset dy="4"/>
<feGaussianBlur stdDeviation="2"/>
<feComposite in2="hardAlpha" operator="out"/>
<feColorMatrix type="matrix" values="0 0 0 0 0 0 0 0 0 0 0 0 0 0 0 0 0 0 0.15 0"/>
<feBlend mode="normal" in2="BackgroundImageFix" result="effect1_dropShadow_218_113"/>
<feBlend mode="normal" in="SourceGraphic" in2="effect1_dropShadow_218_113" result="shape"/>
</filter>
</defs>
</svg>
